<svg width="48" height="38" viewBox="0 0 48 38" fill="none" xmlns="http://www.w3.org/2000/svg">
<path fill-rule="evenodd" clip-rule="evenodd" d="M45.9166 37.6666C45.9166 37.6666 49 37.6666 49 34.5555C49 31.4444 45.9166 22.1111 33.5833 22.1111C21.25 22.1111 18.1666 31.4444 18.1666 34.5555C18.1666 37.6666 21.25 37.6666 21.25 37.6666H45.9166ZM21.3178 34.5555H45.8488C45.8632 34.5538 45.8776 34.5518 45.892 34.5493L45.9166 34.5431C45.9105 33.7218 45.4017 31.3386 43.5733 29.192C41.8713 27.1791 38.8805 25.2222 33.5833 25.2222C28.2892 25.2222 25.2984 27.1822 23.5933 29.192C21.7649 31.3386 21.253 33.7249 21.25 34.5431C21.2725 34.5475 21.2951 34.5516 21.3178 34.5555V34.5555ZM33.5833 15.8889C35.2188 15.8889 36.7873 15.2333 37.9438 14.0664C39.1003 12.8995 39.75 11.3169 39.75 9.66665C39.75 8.01641 39.1003 6.43376 37.9438 5.26687C36.7873 4.09998 35.2188 3.44442 33.5833 3.44442C31.9478 3.44442 30.3793 4.09998 29.2228 5.26687C28.0663 6.43376 27.4166 8.01641 27.4166 9.66665C27.4166 11.3169 28.0663 12.8995 29.2228 14.0664C30.3793 15.2333 31.9478 15.8889 33.5833 15.8889ZM42.8333 9.66665C42.8333 10.8923 42.594 12.106 42.1292 13.2384C41.6643 14.3707 40.983 15.3996 40.124 16.2663C39.2651 17.133 38.2454 17.8205 37.1231 18.2895C36.0009 18.7586 34.798 19 33.5833 19C32.3686 19 31.1657 18.7586 30.0435 18.2895C28.9212 17.8205 27.9015 17.133 27.0426 16.2663C26.1836 15.3996 25.5023 14.3707 25.0374 13.2384C24.5725 12.106 24.3333 10.8923 24.3333 9.66665C24.3333 7.19129 25.3078 4.81732 27.0426 3.06698C28.7773 1.31664 31.13 0.333313 33.5833 0.333313C36.0365 0.333313 38.3893 1.31664 40.124 3.06698C41.8587 4.81732 42.8333 7.19129 42.8333 9.66665V9.66665ZM21.0526 22.9822C19.8192 22.5903 18.5478 22.3327 17.2601 22.2138C16.5366 22.1443 15.8101 22.1101 15.0833 22.1111C2.74996 22.1111 -0.333374 31.4444 -0.333374 34.5555C-0.333374 36.6306 0.693376 37.6666 2.74996 37.6666H15.7493C15.2922 36.6954 15.0642 35.6305 15.0833 34.5555C15.0833 31.4133 16.2457 28.2026 18.4441 25.5209C19.1934 24.6062 20.066 23.7506 21.0526 22.9822ZM14.8366 25.2222C9.69363 25.2844 6.77371 27.2133 5.09329 29.192C3.25254 31.3511 2.74996 33.7435 2.74996 34.5555H12C12 31.3044 12.9959 28.0658 14.8366 25.2222ZM4.29163 11.2222C4.29163 8.74685 5.26618 6.37288 7.00089 4.62254C8.7356 2.8722 11.0884 1.88887 13.5416 1.88887C15.9949 1.88887 18.3477 2.8722 20.0824 4.62254C21.8171 6.37288 22.7916 8.74685 22.7916 11.2222C22.7916 13.6976 21.8171 16.0715 20.0824 17.8219C18.3477 19.5722 15.9949 20.5555 13.5416 20.5555C11.0884 20.5555 8.7356 19.5722 7.00089 17.8219C5.26618 16.0715 4.29163 13.6976 4.29163 11.2222V11.2222ZM13.5416 4.99998C11.9061 4.99998 10.3376 5.65553 9.18113 6.82243C8.02466 7.98932 7.37496 9.57197 7.37496 11.2222C7.37496 12.8724 8.02466 14.4551 9.18113 15.622C10.3376 16.7889 11.9061 17.4444 13.5416 17.4444C15.1771 17.4444 16.7456 16.7889 17.9021 15.622C19.0586 14.4551 19.7083 12.8724 19.7083 11.2222C19.7083 9.57197 19.0586 7.98932 17.9021 6.82243C16.7456 5.65553 15.1771 4.99998 13.5416 4.99998Z" fill="white"/>
</svg>
